<mxfile host="Electron" agent="Mozilla/5.0 (X11; Linux x86_64) AppleWebKit/537.36 (KHTML, like Gecko) draw.io/26.2.15 Chrome/134.0.6998.205 Electron/35.2.1 Safari/537.36" version="26.2.15">
  <diagram name="Page-1" id="JTebX13T57JOCU6uBP6o">
    <mxGraphModel dx="2210" dy="843" grid="1" gridSize="10" guides="1" tooltips="1" connect="1" arrows="1" fold="1" page="1" pageScale="1" pageWidth="850" pageHeight="1100" math="0" shadow="0">
      <root>
        <mxCell id="0" />
        <mxCell id="1" parent="0" />
        <mxCell id="L917rl3WQuj-jrRBU2QC-1" style="edgeStyle=orthogonalEdgeStyle;rounded=0;orthogonalLoop=1;jettySize=auto;html=1;exitX=0.5;exitY=1;exitDx=0;exitDy=0;entryX=0.5;entryY=0;entryDx=0;entryDy=0;strokeWidth=3;endArrow=none;startFill=0;" edge="1" parent="1" source="L917rl3WQuj-jrRBU2QC-51" target="L917rl3WQuj-jrRBU2QC-50">
          <mxGeometry relative="1" as="geometry" />
        </mxCell>
        <mxCell id="L917rl3WQuj-jrRBU2QC-2" value="" style="endArrow=none;html=1;rounded=0;strokeWidth=3;exitX=0.5;exitY=0;exitDx=0;exitDy=0;" edge="1" parent="1" source="L917rl3WQuj-jrRBU2QC-44">
          <mxGeometry width="50" height="50" relative="1" as="geometry">
            <mxPoint x="-130" y="810" as="sourcePoint" />
            <mxPoint x="-130" y="260" as="targetPoint" />
          </mxGeometry>
        </mxCell>
        <mxCell id="L917rl3WQuj-jrRBU2QC-3" style="edgeStyle=orthogonalEdgeStyle;rounded=0;orthogonalLoop=1;jettySize=auto;html=1;exitX=0.5;exitY=1;exitDx=0;exitDy=0;entryX=0.5;entryY=0;entryDx=0;entryDy=0;strokeWidth=3;endArrow=none;startFill=0;" edge="1" parent="1" source="L917rl3WQuj-jrRBU2QC-53" target="L917rl3WQuj-jrRBU2QC-45">
          <mxGeometry relative="1" as="geometry" />
        </mxCell>
        <mxCell id="L917rl3WQuj-jrRBU2QC-4" style="edgeStyle=orthogonalEdgeStyle;rounded=0;orthogonalLoop=1;jettySize=auto;html=1;exitX=0.5;exitY=1;exitDx=0;exitDy=0;endArrow=none;startFill=0;strokeWidth=3;" edge="1" parent="1" source="L917rl3WQuj-jrRBU2QC-54" target="L917rl3WQuj-jrRBU2QC-46">
          <mxGeometry relative="1" as="geometry" />
        </mxCell>
        <mxCell id="L917rl3WQuj-jrRBU2QC-5" style="edgeStyle=orthogonalEdgeStyle;rounded=0;orthogonalLoop=1;jettySize=auto;html=1;exitX=0.5;exitY=1;exitDx=0;exitDy=0;endArrow=none;startFill=0;strokeWidth=3;" edge="1" parent="1" source="L917rl3WQuj-jrRBU2QC-55" target="L917rl3WQuj-jrRBU2QC-47">
          <mxGeometry relative="1" as="geometry" />
        </mxCell>
        <mxCell id="L917rl3WQuj-jrRBU2QC-6" style="edgeStyle=orthogonalEdgeStyle;rounded=0;orthogonalLoop=1;jettySize=auto;html=1;exitX=0.5;exitY=1;exitDx=0;exitDy=0;strokeWidth=3;endArrow=none;startFill=0;" edge="1" parent="1" source="L917rl3WQuj-jrRBU2QC-56" target="L917rl3WQuj-jrRBU2QC-48">
          <mxGeometry relative="1" as="geometry" />
        </mxCell>
        <mxCell id="L917rl3WQuj-jrRBU2QC-7" style="edgeStyle=orthogonalEdgeStyle;rounded=0;orthogonalLoop=1;jettySize=auto;html=1;exitX=0.5;exitY=1;exitDx=0;exitDy=0;entryX=0.5;entryY=0;entryDx=0;entryDy=0;endArrow=none;startFill=0;strokeWidth=3;" edge="1" parent="1" source="L917rl3WQuj-jrRBU2QC-57" target="L917rl3WQuj-jrRBU2QC-49">
          <mxGeometry relative="1" as="geometry" />
        </mxCell>
        <mxCell id="L917rl3WQuj-jrRBU2QC-8" value="" style="shape=flexArrow;endArrow=classic;html=1;rounded=0;fillColor=light-dark(#080808, #ededed);" edge="1" parent="1">
          <mxGeometry width="50" height="50" relative="1" as="geometry">
            <mxPoint x="-130" y="340" as="sourcePoint" />
            <mxPoint x="90" y="340" as="targetPoint" />
          </mxGeometry>
        </mxCell>
        <mxCell id="L917rl3WQuj-jrRBU2QC-9" value="" style="shape=flexArrow;endArrow=classic;html=1;rounded=0;fillColor=light-dark(#080808, #ededed);" edge="1" parent="1">
          <mxGeometry width="50" height="50" relative="1" as="geometry">
            <mxPoint x="90" y="390" as="sourcePoint" />
            <mxPoint x="940" y="390" as="targetPoint" />
          </mxGeometry>
        </mxCell>
        <mxCell id="L917rl3WQuj-jrRBU2QC-10" value="" style="shape=flexArrow;endArrow=classic;html=1;rounded=0;fillColor=light-dark(#080808, #ededed);" edge="1" parent="1">
          <mxGeometry width="50" height="50" relative="1" as="geometry">
            <mxPoint x="940" y="480" as="sourcePoint" />
            <mxPoint x="88" y="480" as="targetPoint" />
          </mxGeometry>
        </mxCell>
        <mxCell id="L917rl3WQuj-jrRBU2QC-19" value="&lt;div&gt;&lt;b&gt;&lt;font style=&quot;font-size: 14px;&quot;&gt;&lt;font style=&quot;&quot;&gt;1)&amp;nbsp;&lt;/font&gt;&lt;span style=&quot;background-color: transparent; color: light-dark(rgb(0, 0, 0), rgb(255, 255, 255));&quot;&gt;Retrieve Wallet Logs&lt;/span&gt;&lt;/font&gt;&lt;/b&gt;&lt;/div&gt;" style="text;html=1;align=center;verticalAlign=middle;resizable=0;points=[];autosize=1;strokeColor=none;fillColor=none;" vertex="1" parent="1">
          <mxGeometry x="-105" y="300" width="180" height="30" as="geometry" />
        </mxCell>
        <mxCell id="L917rl3WQuj-jrRBU2QC-20" value="&lt;div&gt;&lt;font style=&quot;font-size: 14px;&quot;&gt;&lt;b&gt;&amp;nbsp;2) Fetch Wallet Logs&lt;/b&gt;&lt;/font&gt;&lt;/div&gt;" style="text;html=1;align=center;verticalAlign=middle;resizable=0;points=[];autosize=1;strokeColor=none;fillColor=none;" vertex="1" parent="1">
          <mxGeometry x="120" y="338" width="160" height="30" as="geometry" />
        </mxCell>
        <mxCell id="L917rl3WQuj-jrRBU2QC-21" value="&lt;div&gt;&lt;b&gt;&lt;font style=&quot;font-size: 14px;&quot;&gt;3) Return 10 Wallet Logs&lt;/font&gt;&lt;/b&gt;&lt;/div&gt;" style="text;html=1;align=center;verticalAlign=middle;resizable=0;points=[];autosize=1;strokeColor=none;fillColor=none;" vertex="1" parent="1">
          <mxGeometry x="115" y="440" width="190" height="30" as="geometry" />
        </mxCell>
        <mxCell id="L917rl3WQuj-jrRBU2QC-22" value="&lt;div&gt;&lt;font style=&quot;font-size: 14px;&quot;&gt;&lt;b&gt;4: Return wallet Logs&lt;/b&gt;&lt;/font&gt;&lt;/div&gt;" style="text;html=1;align=center;verticalAlign=middle;resizable=0;points=[];autosize=1;strokeColor=none;fillColor=none;" vertex="1" parent="1">
          <mxGeometry x="-100" y="490" width="170" height="30" as="geometry" />
        </mxCell>
        <mxCell id="L917rl3WQuj-jrRBU2QC-51" value="Notif Manager" style="rounded=1;whiteSpace=wrap;html=1;strokeWidth=3;fontStyle=1;fontSize=13;" vertex="1" parent="1">
          <mxGeometry x="1090" y="200" width="120" height="60" as="geometry" />
        </mxCell>
        <mxCell id="L917rl3WQuj-jrRBU2QC-52" value="&amp;nbsp;User" style="rounded=1;whiteSpace=wrap;html=1;strokeWidth=3;fontStyle=1;fontSize=13;" vertex="1" parent="1">
          <mxGeometry x="-190" y="200" width="120" height="60" as="geometry" />
        </mxCell>
        <mxCell id="L917rl3WQuj-jrRBU2QC-53" value="API Gateway" style="rounded=1;whiteSpace=wrap;html=1;strokeWidth=3;fontStyle=1;fontSize=13;" vertex="1" parent="1">
          <mxGeometry x="30" y="200" width="120" height="60" as="geometry" />
        </mxCell>
        <mxCell id="L917rl3WQuj-jrRBU2QC-54" value="Profile Management" style="rounded=1;whiteSpace=wrap;html=1;strokeWidth=3;fontStyle=1;fontSize=13;" vertex="1" parent="1">
          <mxGeometry x="250" y="200" width="120" height="60" as="geometry" />
        </mxCell>
        <mxCell id="L917rl3WQuj-jrRBU2QC-55" value="Event Manager" style="rounded=1;whiteSpace=wrap;html=1;strokeWidth=3;fontStyle=1;fontSize=13;" vertex="1" parent="1">
          <mxGeometry x="460" y="200" width="120" height="60" as="geometry" />
        </mxCell>
        <mxCell id="L917rl3WQuj-jrRBU2QC-56" value="Reserve Manager" style="rounded=1;whiteSpace=wrap;html=1;strokeWidth=3;fontStyle=1;fontSize=13;" vertex="1" parent="1">
          <mxGeometry x="670" y="200" width="120" height="60" as="geometry" />
        </mxCell>
        <mxCell id="L917rl3WQuj-jrRBU2QC-57" value="Wallet Manager" style="rounded=1;whiteSpace=wrap;html=1;strokeWidth=3;fontStyle=1;fontSize=13;" vertex="1" parent="1">
          <mxGeometry x="880" y="200" width="120" height="60" as="geometry" />
        </mxCell>
        <mxCell id="L917rl3WQuj-jrRBU2QC-58" value="&lt;font style=&quot;font-size: 15px;&quot;&gt;&lt;b&gt;Wallet TransactionLog&lt;/b&gt;&lt;/font&gt;" style="text;html=1;align=center;verticalAlign=middle;resizable=0;points=[];autosize=1;strokeColor=none;fillColor=none;" vertex="1" parent="1">
          <mxGeometry x="380" y="140" width="180" height="30" as="geometry" />
        </mxCell>
        <mxCell id="L917rl3WQuj-jrRBU2QC-59" value="" style="group" vertex="1" connectable="0" parent="1">
          <mxGeometry x="-190" y="810" width="1400" height="60" as="geometry" />
        </mxCell>
        <mxCell id="L917rl3WQuj-jrRBU2QC-44" value="&amp;nbsp;User" style="rounded=1;whiteSpace=wrap;html=1;strokeWidth=3;fontStyle=1;fontSize=13;" vertex="1" parent="L917rl3WQuj-jrRBU2QC-59">
          <mxGeometry width="120" height="60" as="geometry" />
        </mxCell>
        <mxCell id="L917rl3WQuj-jrRBU2QC-45" value="API Gateway" style="rounded=1;whiteSpace=wrap;html=1;strokeWidth=3;fontStyle=1;fontSize=13;" vertex="1" parent="L917rl3WQuj-jrRBU2QC-59">
          <mxGeometry x="220" width="120" height="60" as="geometry" />
        </mxCell>
        <mxCell id="L917rl3WQuj-jrRBU2QC-46" value="Profile Management" style="rounded=1;whiteSpace=wrap;html=1;strokeWidth=3;fontStyle=1;fontSize=13;" vertex="1" parent="L917rl3WQuj-jrRBU2QC-59">
          <mxGeometry x="440" width="120" height="60" as="geometry" />
        </mxCell>
        <mxCell id="L917rl3WQuj-jrRBU2QC-47" value="Event Manager" style="rounded=1;whiteSpace=wrap;html=1;strokeWidth=3;fontStyle=1;fontSize=13;" vertex="1" parent="L917rl3WQuj-jrRBU2QC-59">
          <mxGeometry x="650" width="120" height="60" as="geometry" />
        </mxCell>
        <mxCell id="L917rl3WQuj-jrRBU2QC-48" value="Reserve Manager" style="rounded=1;whiteSpace=wrap;html=1;strokeWidth=3;fontStyle=1;fontSize=13;" vertex="1" parent="L917rl3WQuj-jrRBU2QC-59">
          <mxGeometry x="860" width="120" height="60" as="geometry" />
        </mxCell>
        <mxCell id="L917rl3WQuj-jrRBU2QC-49" value="Wallet Manager" style="rounded=1;whiteSpace=wrap;html=1;strokeWidth=3;fontStyle=1;fontSize=13;" vertex="1" parent="L917rl3WQuj-jrRBU2QC-59">
          <mxGeometry x="1070" width="120" height="60" as="geometry" />
        </mxCell>
        <mxCell id="L917rl3WQuj-jrRBU2QC-50" value="Notif Manager" style="rounded=1;whiteSpace=wrap;html=1;strokeWidth=3;fontStyle=1;fontSize=13;" vertex="1" parent="L917rl3WQuj-jrRBU2QC-59">
          <mxGeometry x="1280" width="120" height="60" as="geometry" />
        </mxCell>
        <mxCell id="L917rl3WQuj-jrRBU2QC-60" value="" style="shape=flexArrow;endArrow=classic;html=1;rounded=0;fillColor=light-dark(#080808, #ededed);" edge="1" parent="1">
          <mxGeometry width="50" height="50" relative="1" as="geometry">
            <mxPoint x="90" y="530" as="sourcePoint" />
            <mxPoint x="-130" y="530" as="targetPoint" />
          </mxGeometry>
        </mxCell>
        <mxCell id="L917rl3WQuj-jrRBU2QC-61" value="&lt;div&gt;&lt;span style=&quot;font-size: 17px;&quot;&gt;&lt;b&gt;In the above Diagram:&lt;/b&gt;&lt;/span&gt;&lt;/div&gt;&lt;div&gt;&lt;span style=&quot;font-size: 17px;&quot;&gt;&lt;b&gt;&lt;br&gt;&lt;/b&gt;&lt;/span&gt;&lt;/div&gt;&lt;div&gt;&lt;span style=&quot;font-size: 17px;&quot;&gt;&lt;b&gt;1) The user, who has already logged in, sends a request to get the last 10 wallet transaction logs, placing the authentication token in the request header to the API Gateway.&lt;/b&gt;&lt;/span&gt;&lt;/div&gt;&lt;div&gt;&lt;span style=&quot;font-size: 17px;&quot;&gt;&lt;b&gt;&lt;br&gt;&lt;/b&gt;&lt;/span&gt;&lt;/div&gt;&lt;div&gt;&lt;span style=&quot;font-size: 17px;&quot;&gt;&lt;b&gt;2) The API Gateway validates the token, extracts the User ID, and forwards the request to the Wallet Manager to fetch the transaction logs.&lt;/b&gt;&lt;/span&gt;&lt;/div&gt;&lt;div&gt;&lt;span style=&quot;font-size: 17px;&quot;&gt;&lt;b&gt;&lt;br&gt;&lt;/b&gt;&lt;/span&gt;&lt;/div&gt;&lt;div&gt;&lt;span style=&quot;font-size: 17px;&quot;&gt;&lt;b&gt;3) The Wallet Manager retrieves the last 10 transaction logs associated with the User ID and returns them to the API Gateway.&lt;/b&gt;&lt;/span&gt;&lt;/div&gt;&lt;div&gt;&lt;span style=&quot;font-size: 17px;&quot;&gt;&lt;b&gt;&lt;br&gt;&lt;/b&gt;&lt;/span&gt;&lt;/div&gt;&lt;div&gt;&lt;span style=&quot;font-size: 17px;&quot;&gt;&lt;b&gt;4) The API Gateway returns the wallet transaction logs to the user as the final response.&lt;/b&gt;&lt;/span&gt;&lt;/div&gt;&lt;div&gt;&lt;span style=&quot;font-size: 17px;&quot;&gt;&lt;b&gt;&lt;br&gt;&lt;/b&gt;&lt;/span&gt;&lt;/div&gt;&lt;div&gt;&lt;span style=&quot;font-size: 17px;&quot;&gt;&lt;b&gt;This diagram illustrates the process of retrieving wallet transaction logs, enabling real-time reporting for the user.&lt;/b&gt;&lt;/span&gt;&lt;/div&gt;" style="text;html=1;align=left;verticalAlign=middle;resizable=0;points=[];autosize=1;strokeColor=none;fillColor=none;" vertex="1" parent="1">
          <mxGeometry x="-190" y="990" width="1410" height="240" as="geometry" />
        </mxCell>
      </root>
    </mxGraphModel>
  </diagram>
</mxfile>
